<?xml version="1.0" standalone="no"?>
<!DOCTYPE svg PUBLIC "-//W3C//DTD SVG 20010904//EN"
 "http://www.w3.org/TR/2001/REC-SVG-20010904/DTD/svg10.dtd">
<svg version="1.0" xmlns="http://www.w3.org/2000/svg"
 width="900.000000pt" height="718.000000pt" viewBox="0 0 900.000000 718.000000"
 preserveAspectRatio="xMidYMid meet">
<metadata>
Created by potrace 1.15, written by Peter Selinger 2001-2017
</metadata>
<g transform="translate(0.000000,718.000000) scale(0.100000,-0.100000)"
fill="#000000" stroke="none">
<path d="M3580 3555 l0 -1315 301 2 301 3 1 555 2 555 523 3 522 2 0 -560 0
-560 299 0 c189 0 302 4 306 10 3 5 3 595 -1 1310 l-7 1300 -299 0 -298 0 0
-500 0 -500 -522 2 -523 3 -3 503 -2 502 -300 0 -300 0 0 -1315z"/>
<path d="M1977 2940 c3 -25 23 -99 44 -165 180 -581 522 -1068 1001 -1427 370
-278 804 -457 1288 -533 164 -26 532 -31 705 -10 533 64 976 241 1400 559 142
107 380 340 492 482 228 289 394 608 492 947 32 108 33 131 6 120 -8 -3 -15 0
-15 7 0 6 5 8 10 5 6 -3 10 -1 10 6 0 8 4 8 15 -1 12 -10 15 -10 15 4 0 18 -9
20 -44 7 -17 -7 -26 -7 -28 1 -3 7 -11 6 -27 -3 -20 -12 -24 -12 -36 4 -12 16
-14 14 -30 -27 -9 -24 -14 -50 -10 -57 5 -7 4 -10 -2 -6 -6 4 -24 -30 -43 -81
-81 -214 -248 -501 -408 -702 -109 -137 -328 -351 -467 -456 -386 -290 -771
-452 -1260 -529 -140 -22 -472 -31 -620 -16 -1009 103 -1847 716 -2243 1641
-27 63 -58 141 -68 173 -12 39 -21 53 -27 45 -5 -8 -7 -2 -3 17 3 17 3 24 0
18 -3 -7 -12 -13 -20 -13 -8 0 -14 -8 -14 -17 0 -14 -2 -15 -9 -4 -6 9 -22 12
-50 9 -36 -3 -42 -1 -50 22 -8 19 -9 15 -4 -20z"/>
</g>
</svg>
